<svg width="26" height="26" viewBox="0 0 26 26" fill="none" xmlns="http://www.w3.org/2000/svg">
<path fill-rule="evenodd" clip-rule="evenodd" d="M7.80766 0.0750968C9.14272 0.0139043 9.56827 0 12.9678 0C16.368 0 16.7928 0.0145983 18.1272 0.0750968C19.4601 0.135595 20.3704 0.347675 21.1665 0.657097C22.0016 0.971491 22.758 1.46409 23.3833 2.10063C24.0199 2.72579 24.5126 3.48228 24.8268 4.31737C25.1362 5.11353 25.3476 6.02374 25.4088 7.356C25.47 8.69106 25.4839 9.11661 25.4839 12.5161C25.4839 15.9156 25.4694 16.3412 25.4088 17.6763C25.3483 19.0085 25.1362 19.9187 24.8268 20.7149C24.507 21.5375 24.0786 22.2363 23.3833 22.9316C22.7581 23.5682 22.0016 24.0609 21.1665 24.3752C20.3704 24.6845 19.4601 24.8959 18.128 24.9572C16.7928 25.0184 16.3673 25.0323 12.9678 25.0323C9.56827 25.0323 9.14272 25.0177 7.80766 24.9572C6.4754 24.8966 5.56519 24.6845 4.76903 24.3752C3.94644 24.0553 3.24763 23.6269 2.55229 22.9316C1.91564 22.3065 1.423 21.5499 1.10876 20.7149C0.799335 19.9187 0.587949 19.0085 0.526757 17.6763C0.465564 16.3412 0.45166 15.9163 0.45166 12.5161C0.45166 9.11592 0.466258 8.69106 0.526757 7.35671C0.587255 6.02374 0.799335 5.11353 1.10876 4.31737C1.42315 3.48234 1.91575 2.72588 2.55229 2.10063C3.17743 1.46398 3.93393 0.971343 4.76903 0.657097C5.56519 0.347675 6.4754 0.136289 7.80766 0.0750968ZM18.0257 2.328C16.7059 2.2682 16.3096 2.25499 12.9678 2.25499C9.62598 2.25499 9.22964 2.2682 7.90988 2.328C6.68956 2.38363 6.0269 2.58736 5.58605 2.75911C5.00197 2.98579 4.58476 3.25697 4.14669 3.69503C3.70934 4.1331 3.43745 4.55031 3.21077 5.13439C3.03902 5.57524 2.83529 6.2379 2.77966 7.45822C2.71986 8.77798 2.70665 9.17432 2.70665 12.5161C2.70665 15.8579 2.71986 16.2542 2.77966 17.574C2.83529 18.7943 3.03902 19.457 3.21077 19.8979C3.41128 20.4416 3.7311 20.9333 4.14669 21.3373C4.55051 21.7528 5.04236 22.0726 5.58605 22.2731C6.0269 22.4449 6.68956 22.6486 7.90988 22.7043C9.22964 22.7641 9.62529 22.7773 12.9678 22.7773C16.3103 22.7773 16.7059 22.7641 18.0257 22.7043C19.246 22.6486 19.9087 22.4449 20.3496 22.2731C20.9336 22.0465 21.3509 21.7753 21.7889 21.3373C22.2045 20.9335 22.5243 20.4416 22.7248 19.8979C22.8966 19.457 23.1003 18.7943 23.1559 17.574C23.2158 16.2542 23.229 15.8579 23.229 12.5161C23.229 9.17432 23.2158 8.77798 23.1559 7.45822C23.1003 6.2379 22.8966 5.57524 22.7248 5.13439C22.4981 4.55031 22.227 4.1331 21.7889 3.69503C21.3509 3.25768 20.9336 2.98579 20.3496 2.75911C19.9087 2.58736 19.246 2.38363 18.0257 2.328ZM11.3697 16.3744C11.8764 16.5843 12.4194 16.6923 12.9678 16.6923C14.0755 16.6923 15.1376 16.2523 15.9208 15.4691C16.7041 14.686 17.1441 13.6237 17.1441 12.5161C17.1441 11.4086 16.7041 10.3463 15.9208 9.5631C15.1376 8.77991 14.0755 8.33991 12.9678 8.33991C12.4194 8.33991 11.8764 8.44793 11.3697 8.6578C10.8629 8.86768 10.4026 9.17529 10.0148 9.5631C9.627 9.95089 9.31937 10.4113 9.1095 10.9179C8.89963 11.4246 8.79161 11.9677 8.79161 12.5161C8.79161 13.0646 8.89963 13.6076 9.1095 14.1143C9.31937 14.621 9.627 15.0814 10.0148 15.4691C10.4026 15.8569 10.8629 16.1646 11.3697 16.3744ZM8.4188 7.9671C9.62528 6.76062 11.2616 6.08283 12.9678 6.08283C14.6741 6.08283 16.3104 6.76062 17.5168 7.9671C18.7233 9.17357 19.4011 10.81 19.4011 12.5161C19.4011 14.2223 18.7233 15.8586 17.5168 17.0652C16.3104 18.2716 14.6741 18.9494 12.9678 18.9494C11.2616 18.9494 9.62528 18.2716 8.4188 17.0652C7.21233 15.8586 6.53453 14.2223 6.53453 12.5161C6.53453 10.81 7.21233 9.17357 8.4188 7.9671ZM20.8276 7.04132C21.1127 6.75613 21.2729 6.36933 21.2729 5.96602C21.2729 5.56269 21.1127 5.1759 20.8276 4.89071C20.5423 4.60553 20.1556 4.44531 19.7522 4.44531C19.349 4.44531 18.9621 4.60553 18.677 4.89071C18.3917 5.1759 18.2315 5.56269 18.2315 5.96602C18.2315 6.36933 18.3917 6.75613 18.677 7.04132C18.9621 7.32651 19.349 7.48673 19.7522 7.48673C20.1556 7.48673 20.5423 7.32651 20.8276 7.04132Z" fill="black"/>
</svg>
