<svg width="26" height="25" viewBox="0 0 26 25" fill="none" xmlns="http://www.w3.org/2000/svg">
<path d="M22.8053 0H3.16246C1.68366 0 0.483887 1.19978 0.483887 2.67857V22.3214C0.483887 23.8002 1.68366 25 3.16246 25H22.8053C24.2841 25 25.4839 23.8002 25.4839 22.3214V2.67857C25.4839 1.19978 24.2841 0 22.8053 0ZM20.0765 8.86161C20.0877 9.01786 20.0877 9.17969 20.0877 9.33594C20.0877 14.1741 16.4046 19.7489 9.67474 19.7489C7.59884 19.7489 5.67362 19.1462 4.05532 18.1083C4.35107 18.1417 4.63567 18.1529 4.93701 18.1529C6.65018 18.1529 8.22384 17.5725 9.47942 16.5904C7.87228 16.5569 6.52183 15.5022 6.05866 14.0513C6.62228 14.135 7.13009 14.135 7.71045 13.9844C6.03634 13.644 4.78076 12.1708 4.78076 10.3906V10.346C5.26625 10.6194 5.83545 10.7868 6.43255 10.8092C5.93055 10.4752 5.51903 10.0223 5.23471 9.4906C4.95038 8.95895 4.8021 8.36518 4.80308 7.76228C4.80308 7.08147 4.98165 6.45647 5.29974 5.91518C7.10219 8.13616 9.80866 9.58705 12.8444 9.7433C12.3254 7.26005 14.1837 5.24554 16.4158 5.24554C17.4705 5.24554 18.4192 5.68638 19.0888 6.40067C19.9147 6.24442 20.7071 5.9375 21.4102 5.51897C21.1368 6.36719 20.562 7.08147 19.8031 7.53348C20.5397 7.45536 21.254 7.24888 21.9125 6.96429C21.4158 7.69531 20.7908 8.34263 20.0765 8.86161Z" fill="black"/>
</svg>
