<svg width="26" height="26" viewBox="0 0 26 26" fill="none" xmlns="http://www.w3.org/2000/svg">
<path d="M25.0258 3.86097C24.7285 2.35041 23.9053 1.16571 22.845 0.746915C20.8927 3.57074e-05 13.0442 3.5888e-05 13.0442 3.5888e-05C13.0442 3.5888e-05 5.21061 -0.0178805 3.23793 0.746915C2.18312 1.16683 1.35602 2.35041 1.0618 3.86097C0.691682 6.72419 0.507795 9.62213 0.516402 12.5335C0.51249 15.4258 0.695594 18.3193 1.0618 21.1646C1.35602 22.6752 2.18312 23.8599 3.23793 24.2854C5.19026 25.0323 13.0442 25.0323 13.0442 25.0323C13.0442 25.0323 20.8731 25.0323 22.845 24.2854C23.9053 23.8599 24.7285 22.6763 25.0258 21.1646C25.385 18.3193 25.5603 15.4258 25.5477 12.5335C25.5603 9.62213 25.3889 6.72419 25.0258 3.86097ZM10.5371 17.8938V7.1497L17.0701 12.5335L10.5371 17.8938Z" fill="black"/>
</svg>
