<svg width="41" height="41" viewBox="0 0 41 41" fill="none" xmlns="http://www.w3.org/2000/svg">
<path d="M35.7376 0.915558H4.30903C1.94296 0.915558 0.0233154 2.8352 0.0233154 5.20127V36.6298C0.0233154 38.9959 1.94296 40.9156 4.30903 40.9156H35.7376C38.1037 40.9156 40.0233 38.9959 40.0233 36.6298V5.20127C40.0233 2.8352 38.1037 0.915558 35.7376 0.915558ZM31.3715 15.0941C31.3894 15.3441 31.3894 15.6031 31.3894 15.8531C31.3894 23.5941 25.4965 32.5138 14.7287 32.5138C11.4072 32.5138 8.32689 31.5495 5.7376 29.8888C6.21082 29.9423 6.66617 29.9602 7.14832 29.9602C9.88939 29.9602 12.4072 29.0316 14.4162 27.4602C11.8447 27.4066 9.68403 25.7191 8.94296 23.3977C9.84474 23.5316 10.6572 23.5316 11.5858 23.2906C8.90724 22.7459 6.89832 20.3888 6.89832 17.5406V17.4691C7.6751 17.9066 8.58582 18.1745 9.54117 18.2102C8.73798 17.6759 8.07955 16.9512 7.62463 16.1005C7.16971 15.2499 6.93245 14.2998 6.93403 13.3352C6.93403 12.2459 7.21974 11.2459 7.72867 10.3798C10.6126 13.9334 14.943 16.2548 19.8001 16.5048C18.9697 12.5316 21.943 9.30842 25.5144 9.30842C27.2019 9.30842 28.7197 10.0138 29.7912 11.1566C31.1126 10.9066 32.3805 10.4156 33.5055 9.74591C33.068 11.1031 32.1483 12.2459 30.934 12.9691C32.1126 12.8441 33.2555 12.5138 34.309 12.0584C33.5144 13.2281 32.5144 14.2638 31.3715 15.0941Z" fill="white"/>
</svg>
