<svg width="41" height="41" viewBox="0 0 41 41" fill="none" xmlns="http://www.w3.org/2000/svg">
<path d="M39.1884 7.08514C38.7133 4.67137 37.3979 2.77828 35.7036 2.10908C32.5839 0.915615 20.0425 0.915615 20.0425 0.915615C20.0425 0.915615 7.52495 0.886986 4.37273 2.10908C2.68722 2.78007 1.36556 4.67137 0.895416 7.08514C0.303985 11.6604 0.0101447 16.2911 0.0238989 20.9433C0.017647 25.5651 0.310237 30.1887 0.895416 34.7353C1.36556 37.1491 2.68722 39.0422 4.37273 39.7221C7.49244 40.9156 20.0425 40.9156 20.0425 40.9156C20.0425 40.9156 32.5526 40.9156 35.7036 39.7221C37.3979 39.0422 38.7133 37.1509 39.1884 34.7353C39.7623 30.1887 40.0424 25.5651 40.0224 20.9433C40.0424 16.2911 39.7686 11.6604 39.1884 7.08514ZM16.0363 29.5087V12.3403L26.4758 20.9433L16.0363 29.5087Z" fill="white"/>
</svg>
