<svg width="41" height="41" viewBox="0 0 41 41" fill="none" xmlns="http://www.w3.org/2000/svg">
<path fill-rule="evenodd" clip-rule="evenodd" d="M11.7778 1.03556C13.9111 0.937776 14.5911 0.915558 20.0233 0.915558C25.4566 0.915558 26.1355 0.938885 28.2677 1.03556C30.3977 1.13223 31.8522 1.47112 33.1244 1.96556C34.4588 2.46794 35.6675 3.25509 36.6666 4.27223C37.6839 5.27119 38.4711 6.48003 38.9733 7.81445C39.4677 9.08667 39.8055 10.5411 39.9033 12.67C40.0011 14.8033 40.0233 15.4833 40.0233 20.9156C40.0233 26.3477 40 27.0277 39.9033 29.1612C39.8066 31.2899 39.4677 32.7445 38.9733 34.0167C38.4622 35.3312 37.7777 36.4477 36.6666 37.5588C35.6677 38.5761 34.4588 39.3634 33.1244 39.8656C31.8522 40.3599 30.3977 40.6977 28.269 40.7956C26.1355 40.8934 25.4555 40.9156 20.0233 40.9156C14.5911 40.9156 13.9111 40.8923 11.7778 40.7956C9.64888 40.6988 8.19443 40.3599 6.92221 39.8656C5.60775 39.3545 4.4911 38.6699 3.37999 37.5588C2.36266 36.5599 1.57546 35.351 1.07332 34.0167C0.578879 32.7445 0.241097 31.2899 0.143315 29.1612C0.0455336 27.0277 0.0233154 26.3488 0.0233154 20.9156C0.0233154 15.4822 0.0466427 14.8033 0.143315 12.6711C0.239988 10.5411 0.578879 9.08667 1.07332 7.81445C1.5757 6.48012 2.36284 5.27134 3.37999 4.27223C4.37893 3.2549 5.58777 2.4677 6.92221 1.96556C8.19443 1.47112 9.64888 1.13334 11.7778 1.03556V1.03556ZM28.1055 4.63556C25.9966 4.53999 25.3633 4.51889 20.0233 4.51889C14.6833 4.51889 14.05 4.53999 11.9411 4.63556C9.9911 4.72445 8.93221 5.04999 8.22775 5.32445C7.29443 5.68667 6.62775 6.11999 5.92775 6.81999C5.22888 7.51999 4.79442 8.18667 4.43221 9.11999C4.15775 9.82445 3.83221 10.8833 3.74332 12.8333C3.64775 14.9422 3.62664 15.5756 3.62664 20.9156C3.62664 26.2556 3.64775 26.8888 3.74332 28.9977C3.83221 30.9477 4.15775 32.0067 4.43221 32.7112C4.75261 33.5799 5.26366 34.3657 5.92775 35.0112C6.57302 35.6752 7.35897 36.1863 8.22775 36.5066C8.93221 36.7812 9.9911 37.1067 11.9411 37.1956C14.05 37.2912 14.6822 37.3123 20.0233 37.3123C25.3644 37.3123 25.9966 37.2912 28.1055 37.1956C30.0555 37.1067 31.1144 36.7812 31.819 36.5066C32.7522 36.1445 33.419 35.7112 34.119 35.0112C34.783 34.3659 35.294 33.5799 35.6144 32.7112C35.889 32.0067 36.2144 30.9477 36.3033 28.9977C36.399 26.8888 36.42 26.2556 36.42 20.9156C36.42 15.5756 36.399 14.9422 36.3033 12.8333C36.2144 10.8833 35.889 9.82445 35.6144 9.11999C35.2522 8.18667 34.819 7.51999 34.119 6.81999C33.419 6.12112 32.7522 5.68667 31.819 5.32445C31.1144 5.04999 30.0555 4.72445 28.1055 4.63556V4.63556ZM17.4697 27.0808C18.2793 27.4163 19.147 27.5888 20.0233 27.5888C21.7933 27.5888 23.4906 26.8857 24.742 25.6343C25.9937 24.3828 26.6968 22.6854 26.6968 20.9156C26.6968 19.1457 25.9937 17.4483 24.742 16.1968C23.4906 14.9453 21.7933 14.2422 20.0233 14.2422C19.147 14.2422 18.2793 14.4148 17.4697 14.7502C16.6599 15.0856 15.9243 15.5771 15.3046 16.1968C14.6849 16.8165 14.1934 17.5521 13.858 18.3617C13.5226 19.1714 13.35 20.0392 13.35 20.9156C13.35 21.7919 13.5226 22.6597 13.858 23.4694C14.1934 24.279 14.6849 25.0146 15.3046 25.6343C15.9243 26.2539 16.6599 26.7456 17.4697 27.0808V27.0808ZM12.7543 13.6465C14.6822 11.7186 17.297 10.6355 20.0233 10.6355C22.7499 10.6355 25.3646 11.7186 27.2924 13.6465C29.2202 15.5744 30.3033 18.1892 30.3033 20.9156C30.3033 23.6419 29.2202 26.2566 27.2924 28.1846C25.3646 30.1125 22.7499 31.1956 20.0233 31.1956C17.297 31.1956 14.6822 30.1125 12.7543 28.1846C10.8264 26.2566 9.74337 23.6419 9.74337 20.9156C9.74337 18.1892 10.8264 15.5744 12.7543 13.6465V13.6465ZM32.5828 12.1672C33.0384 11.7114 33.2944 11.0934 33.2944 10.4489C33.2944 9.80439 33.0384 9.18632 32.5828 8.73061C32.127 8.2749 31.509 8.01889 30.8644 8.01889C30.22 8.01889 29.6019 8.2749 29.1462 8.73061C28.6904 9.18632 28.4344 9.80439 28.4344 10.4489C28.4344 11.0934 28.6904 11.7114 29.1462 12.1672C29.6019 12.6229 30.22 12.8789 30.8644 12.8789C31.509 12.8789 32.127 12.6229 32.5828 12.1672Z" fill="white"/>
</svg>
